<svg width="43" height="43" viewBox="0 0 43 43" fill="none" xmlns="http://www.w3.org/2000/svg">
<path d="M23.2917 40.7604H8.95837C4.62254 40.7604 2.23962 38.3775 2.23962 34.0417V19.7083C2.23962 15.3725 4.62254 12.9896 8.95837 12.9896H17.9167C18.6513 12.9896 19.2605 13.5988 19.2605 14.3333V34.0417C19.2605 36.8725 20.4609 38.0729 23.2917 38.0729C24.0263 38.0729 24.6355 38.6821 24.6355 39.4167C24.6355 40.1513 24.0263 40.7604 23.2917 40.7604ZM8.95837 15.6771C6.12754 15.6771 4.92712 16.8775 4.92712 19.7083V34.0417C4.92712 36.8725 6.12754 38.0729 8.95837 38.0729H17.5584C16.9134 37.0158 16.573 35.6721 16.573 34.0417V15.6771H8.95837Z" fill="black"/>
<path d="M17.9167 15.6771H8.95837C8.22379 15.6771 7.61462 15.0679 7.61462 14.3333V10.75C7.61462 8.02666 9.81837 5.82291 12.5417 5.82291H18.1138C18.5259 5.82291 18.92 6.01999 19.1709 6.34249C19.4217 6.68291 19.5113 7.11291 19.4038 7.50707C19.2963 7.90124 19.2605 8.34916 19.2605 8.95832V14.3333C19.2605 15.0679 18.6513 15.6771 17.9167 15.6771ZM10.3021 12.9896H16.573V8.51041H12.5417C11.3055 8.51041 10.3021 9.51374 10.3021 10.75V12.9896ZM25.0834 24.6354C24.3488 24.6354 23.7396 24.0262 23.7396 23.2917V14.3333C23.7396 13.5987 24.3488 12.9896 25.0834 12.9896C25.818 12.9896 26.4271 13.5987 26.4271 14.3333V23.2917C26.4271 24.0262 25.818 24.6354 25.0834 24.6354ZM32.25 24.6354C31.5155 24.6354 30.9063 24.0262 30.9063 23.2917V14.3333C30.9063 13.5987 31.5155 12.9896 32.25 12.9896C32.9846 12.9896 33.5938 13.5987 33.5938 14.3333V23.2917C33.5938 24.0262 32.9846 24.6354 32.25 24.6354ZM32.25 40.7604H25.0834C24.3488 40.7604 23.7396 40.1512 23.7396 39.4167V32.25C23.7396 30.53 25.155 29.1146 26.875 29.1146H30.4584C32.1784 29.1146 33.5938 30.53 33.5938 32.25V39.4167C33.5938 40.1512 32.9846 40.7604 32.25 40.7604ZM26.4271 38.0729H30.9063V32.25C30.9063 31.9992 30.7092 31.8021 30.4584 31.8021H26.875C26.6242 31.8021 26.4271 31.9992 26.4271 32.25V38.0729ZM10.75 31.8021C10.0155 31.8021 9.40629 31.1929 9.40629 30.4583V23.2917C9.40629 22.5571 10.0155 21.9479 10.75 21.9479C11.4846 21.9479 12.0938 22.5571 12.0938 23.2917V30.4583C12.0938 31.1929 11.4846 31.8021 10.75 31.8021Z" fill="black"/>
<path d="M34.0416 40.7604H23.2916C18.9558 40.7604 16.5729 38.3775 16.5729 34.0417V8.95834C16.5729 4.62251 18.9558 2.23959 23.2916 2.23959H34.0416C38.3775 2.23959 40.7604 4.62251 40.7604 8.95834V34.0417C40.7604 38.3775 38.3775 40.7604 34.0416 40.7604ZM23.2916 4.92709C20.4608 4.92709 19.2604 6.12751 19.2604 8.95834V34.0417C19.2604 36.8725 20.4608 38.0729 23.2916 38.0729H34.0416C36.8725 38.0729 38.0729 36.8725 38.0729 34.0417V8.95834C38.0729 6.12751 36.8725 4.92709 34.0416 4.92709H23.2916Z" fill="black"/>
</svg>
